<svg width="26" height="18" viewBox="0 0 26 18" fill="none" xmlns="http://www.w3.org/2000/svg">
<path d="M23.7148 0.0932617H2.28516C1.02512 0.0932617 0 1.11838 0 2.37842V15.6213C0 16.8813 1.02512 17.9064 2.28516 17.9064H23.7148C24.9749 17.9064 26 16.8813 26 15.6213V2.37842C26 1.11838 24.9749 0.0932617 23.7148 0.0932617ZM23.4166 1.6167L23.1116 1.87066L13.9066 9.53563C13.3813 9.97306 12.6186 9.97306 12.0934 9.53563L2.88839 1.87066L2.58339 1.6167H23.4166ZM1.52344 2.71652L9.02342 8.96175L1.52344 13.9532V2.71652ZM23.7148 16.383H2.28516C1.91709 16.383 1.60926 16.1205 1.53872 15.773L10.2449 9.97885L11.1186 10.7063C11.6636 11.1602 12.3319 11.3872 13.0001 11.3872C13.6682 11.3872 14.3364 11.1602 14.8815 10.7063L15.7552 9.97885L24.4613 15.773C24.3907 16.1206 24.0829 16.383 23.7148 16.383ZM24.4766 13.9532L16.9766 8.9618L24.4766 2.71652V13.9532Z" fill="white"/>
</svg>
