<svg width="33" height="33" viewBox="0 0 33 33" fill="none" xmlns="http://www.w3.org/2000/svg">
<g opacity="0.5">
<circle r="16" transform="matrix(-1 0 0 1 16.5 16.5)" stroke="white"/>
<path d="M17.9982 23.0292C18.2319 23.0297 18.4583 22.9483 18.6382 22.7992C18.7395 22.7153 18.8232 22.6122 18.8846 22.4958C18.9459 22.3795 18.9837 22.2522 18.9958 22.1212C19.0079 21.9902 18.994 21.8582 18.9549 21.7326C18.9159 21.607 18.8524 21.4903 18.7682 21.3892L14.2882 16.0292L18.6082 10.6592C18.6913 10.5569 18.7533 10.4393 18.7908 10.3129C18.8282 10.1866 18.8403 10.0541 18.8264 9.92305C18.8124 9.79203 18.7727 9.66504 18.7095 9.54941C18.6464 9.43377 18.561 9.33176 18.4582 9.24924C18.3548 9.1582 18.2336 9.08953 18.1023 9.04754C17.9711 9.00556 17.8326 8.99115 17.6955 9.00524C17.5584 9.01932 17.4257 9.06159 17.3057 9.12939C17.1857 9.19719 17.081 9.28906 16.9982 9.39924L12.1682 15.3992C12.0212 15.5782 11.9408 15.8026 11.9408 16.0342C11.9408 16.2659 12.0212 16.4903 12.1682 16.6692L17.1682 22.6692C17.2686 22.7903 17.396 22.8859 17.5402 22.9485C17.6844 23.011 17.8413 23.0387 17.9982 23.0292Z" fill="white"/>
</g>
</svg>
