<svg width="20" height="20" viewBox="0 0 20 20" fill="none" xmlns="http://www.w3.org/2000/svg">
<path d="M18.1423 14.4765V17.1862C18.1433 17.4377 18.0941 17.6867 17.998 17.9172C17.9018 18.1477 17.7607 18.3546 17.5839 18.5247C17.407 18.6947 17.1981 18.8242 16.9707 18.9048C16.7433 18.9854 16.5024 19.0153 16.2633 18.9927C13.611 18.6907 11.0632 17.7409 8.82477 16.2197C6.74218 14.8329 4.97651 12.9827 3.65315 10.8003C2.19645 8.44389 1.28992 5.76107 1.007 2.96915C0.985457 2.71938 1.01378 2.46764 1.09017 2.22996C1.16656 1.99229 1.28934 1.77389 1.45069 1.58866C1.61204 1.40343 1.80843 1.25544 2.02735 1.15411C2.24627 1.05278 2.48293 1.00032 2.72225 1.00009H5.30807C5.72637 0.995773 6.1319 1.151 6.44907 1.43683C6.76623 1.72267 6.9734 2.11961 7.03194 2.55366C7.14108 3.42084 7.34349 4.27229 7.6353 5.09177C7.75127 5.41507 7.77637 5.76642 7.70762 6.1042C7.63888 6.44198 7.47917 6.75203 7.24743 6.99761L6.15277 8.14473C7.37978 10.406 9.16649 12.2784 11.3244 13.5642L12.4191 12.4171C12.6534 12.1742 12.9493 12.0069 13.2716 11.9348C13.594 11.8628 13.9292 11.8891 14.2377 12.0106C15.0198 12.3164 15.8323 12.5285 16.6598 12.6429C17.0785 12.7048 17.4609 12.9258 17.7342 13.2639C18.0076 13.6019 18.1528 14.0335 18.1423 14.4765Z" stroke="white" stroke-width="2" stroke-linecap="round" stroke-linejoin="round"/>
</svg>
